<mxfile host="app.diagrams.net" modified="2022-05-22T02:27:20.637Z" agent="5.0 (Windows NT 10.0; Win64; x64) AppleWebKit/537.36 (KHTML, like Gecko) Chrome/101.0.4951.67 Safari/537.36" etag="bnHkPqT1SGnrjxcH94B5" version="15.7.3" type="github">
  <diagram id="O1ZeuZ1YWTebVyUv35VO" name="Page-1">
    <mxGraphModel dx="1847" dy="767" grid="1" gridSize="10" guides="1" tooltips="1" connect="1" arrows="1" fold="1" page="1" pageScale="1" pageWidth="827" pageHeight="1169" math="0" shadow="0">
      <root>
        <mxCell id="0" />
        <mxCell id="1" parent="0" />
        <mxCell id="wxUmsyt3SwMRj_RHBpdB-19" value="Region" style="points=[[0,0],[0.25,0],[0.5,0],[0.75,0],[1,0],[1,0.25],[1,0.5],[1,0.75],[1,1],[0.75,1],[0.5,1],[0.25,1],[0,1],[0,0.75],[0,0.5],[0,0.25]];outlineConnect=0;gradientColor=none;html=1;whiteSpace=wrap;fontSize=12;fontStyle=0;shape=mxgraph.aws4.group;grIcon=mxgraph.aws4.group_region;strokeColor=#147EBA;fillColor=none;verticalAlign=top;align=left;spacingLeft=30;fontColor=#147EBA;dashed=1;" vertex="1" parent="1">
          <mxGeometry x="110" y="10" width="1530" height="560" as="geometry" />
        </mxCell>
        <mxCell id="wxUmsyt3SwMRj_RHBpdB-20" value="Private subnet" style="points=[[0,0],[0.25,0],[0.5,0],[0.75,0],[1,0],[1,0.25],[1,0.5],[1,0.75],[1,1],[0.75,1],[0.5,1],[0.25,1],[0,1],[0,0.75],[0,0.5],[0,0.25]];outlineConnect=0;gradientColor=none;html=1;whiteSpace=wrap;fontSize=12;fontStyle=0;shape=mxgraph.aws4.group;grIcon=mxgraph.aws4.group_security_group;grStroke=0;strokeColor=#147EBA;fillColor=#E6F2F8;verticalAlign=top;align=left;spacingLeft=30;fontColor=#147EBA;dashed=0;" vertex="1" parent="1">
          <mxGeometry x="410" y="46.5" width="750" height="330" as="geometry" />
        </mxCell>
        <mxCell id="wxUmsyt3SwMRj_RHBpdB-36" style="edgeStyle=orthogonalEdgeStyle;rounded=0;orthogonalLoop=1;jettySize=auto;html=1;" edge="1" parent="1" source="wxUmsyt3SwMRj_RHBpdB-6" target="wxUmsyt3SwMRj_RHBpdB-35">
          <mxGeometry relative="1" as="geometry" />
        </mxCell>
        <mxCell id="wxUmsyt3SwMRj_RHBpdB-6" value="BUCKET (FILE .BAT)" style="rounded=1;arcSize=10;dashed=1;fillColor=none;gradientColor=none;dashPattern=1 1;strokeWidth=2;" vertex="1" parent="1">
          <mxGeometry x="402" y="430" width="140" height="71.88" as="geometry" />
        </mxCell>
        <mxCell id="wxUmsyt3SwMRj_RHBpdB-4" style="edgeStyle=orthogonalEdgeStyle;rounded=0;orthogonalLoop=1;jettySize=auto;html=1;entryX=0;entryY=0.5;entryDx=0;entryDy=0;entryPerimeter=0;" edge="1" parent="1" source="wxUmsyt3SwMRj_RHBpdB-2" target="wxUmsyt3SwMRj_RHBpdB-3">
          <mxGeometry relative="1" as="geometry" />
        </mxCell>
        <mxCell id="wxUmsyt3SwMRj_RHBpdB-2" value="API GATEWAY" style="outlineConnect=0;dashed=0;verticalLabelPosition=bottom;verticalAlign=top;align=center;html=1;shape=mxgraph.aws3.api_gateway;fillColor=#D9A741;gradientColor=none;" vertex="1" parent="1">
          <mxGeometry x="120" y="82.5" width="76.5" height="93" as="geometry" />
        </mxCell>
        <mxCell id="wxUmsyt3SwMRj_RHBpdB-17" style="edgeStyle=orthogonalEdgeStyle;rounded=0;orthogonalLoop=1;jettySize=auto;html=1;" edge="1" parent="1" source="wxUmsyt3SwMRj_RHBpdB-3" target="wxUmsyt3SwMRj_RHBpdB-6">
          <mxGeometry relative="1" as="geometry">
            <Array as="points">
              <mxPoint x="299" y="466" />
            </Array>
          </mxGeometry>
        </mxCell>
        <mxCell id="wxUmsyt3SwMRj_RHBpdB-3" value="LAMBDA REST-API" style="sketch=0;points=[[0,0,0],[0.25,0,0],[0.5,0,0],[0.75,0,0],[1,0,0],[0,1,0],[0.25,1,0],[0.5,1,0],[0.75,1,0],[1,1,0],[0,0.25,0],[0,0.5,0],[0,0.75,0],[1,0.25,0],[1,0.5,0],[1,0.75,0]];outlineConnect=0;fontColor=#232F3E;gradientColor=#F78E04;gradientDirection=north;fillColor=#D05C17;strokeColor=#ffffff;dashed=0;verticalLabelPosition=bottom;verticalAlign=top;align=center;html=1;fontSize=12;fontStyle=0;aspect=fixed;shape=mxgraph.aws4.resourceIcon;resIcon=mxgraph.aws4.lambda;" vertex="1" parent="1">
          <mxGeometry x="260" y="90" width="78" height="78" as="geometry" />
        </mxCell>
        <mxCell id="wxUmsyt3SwMRj_RHBpdB-44" style="edgeStyle=orthogonalEdgeStyle;rounded=0;orthogonalLoop=1;jettySize=auto;html=1;" edge="1" parent="1" source="wxUmsyt3SwMRj_RHBpdB-9" target="wxUmsyt3SwMRj_RHBpdB-40">
          <mxGeometry relative="1" as="geometry">
            <Array as="points">
              <mxPoint x="1210" y="92" />
            </Array>
          </mxGeometry>
        </mxCell>
        <mxCell id="wxUmsyt3SwMRj_RHBpdB-9" value="CDK APLICATION" style="shape=image;verticalLabelPosition=bottom;labelBackgroundColor=#ffffff;verticalAlign=top;aspect=fixed;imageAspect=0;image=data:image/png,iVBORw0KGgoAAAANSUhEUgAAAJ4AAAAyCAYAAACtW2LuAAAQBklEQVR4nO2ce2xUV37HP/fOeN4evxg/8BhjxuZhCOwYCLFZCIEsJtHWSzciUdWgrIRWUUGpVKRWsqp2s39USP2DSNuCKnWRooVNqtBSYloEKSE0bOKwIUxYYoOxPY7tMX6MH/P2PO/tH3f8xA+ytTFJ7kca6c6cc889597v/M7v9zv3XiE3u0hGReUxo835y2NL3QeV7yHiUndA5fuJKjyVJUEVnsqSoApPZUlQhaeyJKjCU1kSVOGpLAnapTqwKAgY9DqyzEbKiwt4YesmEGSu3GyixdOHLxRmNBZHktX89neRxy48o15HacEyVtsLcRTbKMyxYsjQk0imSCRT1NVUkZTj9A0HcPcMcd/Th7tvgEg09ri7qrKILLrwBEFAI4oU5maxde0qNpevJD/PjCTJBEMJHgwO09XvxWw04u4b5L7nAdvWlrN5dRm1W2288Mw6hgMxXK2dfHa3ne6BISRZRlYt4bcawfH3by/4FdSIInlWC3ZbLuXL8ym355OflQNCEl9wlEFfiCF/kEA4QjyZRJZlim15tPcNcv3OPZBljHodRXk5VBQXUm7PpyQ/G6POwHAwSGuPl9bufnqGhvH6giRTqYUegsois6AWz2I0sGGlHWfFSkoLc7EYM5BSWgb9fu60dzLoDxJLxJGkCa0LgjClDVEQQBCIJZJ09A7wdZ+Xqy6RTJMRx/J8qlavZHPFSnZuchCKxOns83Hb3clXbg8jofBCDkdlEVkQi7dldRmb16zEUVSI2aglGo8z4o/SP+JjYMRPJBZDltOimoYMSJJMSf4y3L2D/O+duwjADFVJSRICArlWM2tKlrO+1E5pUTY5mSZiUZmOAS+f33Nzq7VTtYJPOAti8V790XaQJboHhvH6AgTCEaLxBKm0ZRMQHhKSJIOMSLZBhyMrTlVeE35TkMxkDp/3JOgLhJFlCY0oMLarRlSyPyPBMI3NrdxscZNpMrI8L5s1JYVsf2o1OZlG7nf34QtHFmJoKovEgghPK2roHw7yRYubDI1mfPqcwWgBYNCKOLJFti4bYL3hY8zxjyDWATqRPVtKCDy9g4+9VTTcN3OrJ4w/Gp+yvyAoYkxJEr5QmJFQmNvuLlbk27CYM1DDjiefBfPxBBSLNN1nm05ShhdKNDyn/RiNpgUh3gZJP6ABWYBEAGvGbX5cFObF5at5113G312NoZmjXQHQpo8999FVnhSWIIEsoEsGEV3vkZQFBFsFYsluhJwYgpgCKRP892DoDmLyM8zJ14Dsx99NlUVlyVYuAEhGkXu+JNXzJRRsQru6AGHoPCCDoEFd0fvusrTCAxA1IMsQD0DKDMJSi20LDb9YT6UIEOLyb/6DI+2TijftofGndmyAt+U61e+4Z9/f18nBt67ROKXcydm/3YhTB4GOm1S93aT8vHwtx/aupbbYglWnGa8di47S7LrOgUu9j9b95RUc3bmWA2VZ2AyT2onH8Xa3Uv+bmzQCh372Z9SX6R7eP5kiEAnR3tPJ6Q9cNAxPK9+/nzZnFuDn7C/OUz+pyL59Lw17i7CijK3u7SY8s3Rzqa/yBPP4ho8L+4tFadEBWKiqrpha4XYfbVFl05ZXiH16A7vzcYztn51NXe608m02HDqAFO1dadGtqeHyoW0cKMuaIjoAvcGIo3B6IzNT+eweGg/VcHhd7hTRAeh1OuzFuVTO14hWg9WahXPdRo6/8TJn9z40wplZU8Op3YroYoOtHJ1DdPAkWLwnCgtHHMpF9gZGsVmN2IpWcIBWzo7XacI16KTaroHcPA4Ckx+XOrQiC/2k9sp/AFydKK8uzcQKIPm5dRWgiOP7KnBogeQojV+4OHaxlWaA5XYOP7OFn5jm77l9+17OpC88Upz2djfvu7poaOqFslLq1pXzE8cMO0Z7OXbsA06lv1auWcs+51peXZOFVTTi3L6D0+ELHPwkNPvBc9dzen96DJFejv/2U67N098nx+I9CTicVC8DGKXp0wHlH2sp4uVnp1Y73u1XNkQLldWTS1ZRbdMBcQIRAA2OFeun7Lsrz6JsDA9xGoBiytOxU6C7iYNjogN44OHkufPUnmmau9+5Tt7alRZd0k/DuQvUnrnByaZePICno5OTFz+k9p8+HBfYbDS33OP4v52n7pwbjwSgo7pmGwdm3cNC/StOqk3Ksc+e/4BT06fnGXhswhtLGJsytJj0WjAtUwIIWYLxzJugbMuSUqZbhtGYiUWvQ0JY9Fuk6rYVKVNnaIiGxi7aQgAaKss3Tq34+yEUt09HSUnRxO+OFZRbACnEte5RAKy2QurGK6ynMi0yT39HeioaxZ9OU1pzbA9PzY+AfWcpzvT03fz5FY7emcM6PSKeO9c50a6MAUsetZtmrrdr//O8WqgB4jRevUJ9y6O1v6jCk2VISDIaUYcj18yfrgpwdPUlNup/hVhVgeaZVxDKdoMhD1IJIAXabMjdCcU/hfxKduRf5Z0ft/M3PzTzg+JlCGIG8ZS0CL2toK7YCIC3t4sG3DT0KCdeby+d4kQz3EGbT9m0F5SN+3n2p7KV7eEhjnf4CABYMqkeE9OmQsoNAKO0tYwFC000dKYvcHYpx1/fz4ndqx72HefgYFGWshEd4P1L/3/RjXG2PT0GjJSUPVyu376X484s9KRod12fezqexqL6eBadht2lejaav6CI/0YcvQXREKABUohaC2L5FuR1dRAvRbBkQLICoo0QugRSEBMaNgj/wwZ7Dj8v30xLdDeXukr51xu9JBZSgNVlVFkARmlqagWg4e4Q9Wvs2MRcql+0wMWxE9vL5f5RarONYM3mZeA4EwLw9HfgaSykfXcRTl0W658GLoHdkY0NIOqj8fbEoc++cwXbq89zpMKI3pBF7bM7qK120viFi/pL7jmddFiFIz17EwrNO5V+IxpDePehTOEPYaF2l+LPBrr+wKHzc/dyOotm8WQgx5TBPv85Cjt+B4EiZN0uMK4F0QiGNWDcBVIBQvAOQvIzUm03Sd2/jxQqQjbsUOporGB4Cgw7ESUb67jBayU3sRj0C3pP3uHKfOUER300utI/uiYi2ErHxilWqGHMoumycFYDOKnKhQlr5uJW2tdxlDgBOFigKCQ26J0mkGFOnnmPAxdbcfnSNzfoLFRX76DhL7bNM/0a0S+W+XDoJgVK04njCSh9tS5fxZE136zpxZ1qEZCHO5Du3yDV+BHJT7tIeWqQbW+B8CwMdMKDK+D9HYRakIfakVo+I/XpxyRvDJDq342c9SZIW6HfrdQdbESOdDH7SvAfwxb22ZX0Q6C3Z5IomrjWm3bAlhVxdHJU2OilPQ7jfl51Ok0yyZqd7lWCEH12LnWT/Lv2bhcz0XzjUw68dYa68/doTAvQWriWYy8555h6O/GO3Q9hME7yJxeAUpNioUkRCEwvjHPrt/doTgLaLA7s38uhb+CfPp7gQtCARgexIaSWi8j+AAx+AIl+EDJAmPSXFbWg0UK4D+nuBWRvM3gvQHIwXVcz+3H+SCbn7qxlW2j75Wvjn4kkq4WqzZMCiUkWzV5QxoGy7HQOa8Kaee740pFxNrVOGyUGAD9Nv5+7P82uGxx86yJnBpTvenspR2atHaJpLDqx5FHnfMRBz4uFo45cxeJJfpq+nKHK8E0OX+1VLL+piKN/XsOuR2z9MadTBGWlAmn+JTFBUEQoCOm6i5VgnsjdIaWIxWf4pF1Je2nllLTCmEXDmsfBAiUwmWLN2sciYwvlNenAw+d7eDVgRoa57H00Z/3U7QG8ABjZtfebWZ7Z2LX3OV4dmwU63Lw5S589n3zAUZefGKBfVsHxn61/pMBIzeON5+4g0Oli/T+ceejz5uS0wiSLMm7RdFk4TPCwNXPT6FWskSNfCTy8/V3TltBqOPvXf8KJ5ysmol+g0llD/VjUEI/TPdcYXDf4dUfa6pmKqD/yEmfrNlJbpuxvLyvlcN1eLr+xh0NzngwL1ZudnHj9ZU5sz1UseMDDif+aO4947fwNGgbSrkGZk1P755fe937lYjx3xyi3bs98gs82DnCkohQ7RqqrNoLrD0pBexdtoVLsFg16HRAK0jjNMpzqC1FfNqaoOG0d09d2wWrJxbmjhtodNTMcPU7zFy5OzjmKEKfevk7+oRoOrTCC1oJzs5MTm6fNu9EZ1nsNRdT/8rWp6aI0gQE3x9+9zpl5LXQv9e+6sP98C9UmDQ7nDk57517tWDyLJ8/6ZdbKArKS/JunriCAKIjIj9Dy3Ezk7hju5dTMPj+0t4z7c/pCO4fHCyYsGkDA20fD9H3Hk82AFKK5cXqFLt6/68UTmZjSAUjG8Q54OPXvF6h7pBsEPBw79R51F924fPGpbUkpAgE/11xtXJ6nlVg8jqfLw5mLF6g68SiiSzPcxMHzrbQnAXRU736eY3NEugvyzMU/v/Ea/cM+PrlzD61Gg1GnIyvTzIo8K/siF8nu/oiMQCdyLIgsy2ieO4o4dBKSIciwkNStYNj8Q+SRDHIeXEcT7EKOhZAFLZqtLyAGzyl3rWgzSepX0mvey3+Gf0RH3yAdfQN0DwzhC0f4q5deJNOs5VfnPsSv3vr+RLMgU60sk352NpvSwnwsJhOhWAxvKMKvU3soWPUclRnDrAt9TrbnKqIognkVQePT3BWq+SqST69PBAEKHS+wQdvP2sANsnqvK9Fw5mp85udp5mm+itgYGBGQ5CTFhfk8VV6KVhBwP+gn02RAkpMLMSSVRWZBLN4/vv4KJp0eURQYCo7SOxIkFI0jydL4dCjLAkadlmJ9ghWmFA+iIl0RHZFEEgEZMR20SjLIgog5Q4PdkKBAn+RBLIOeUS2j6bqCoMS4oiig12rJMRspzsskQ6Ohc2CQf2n4SLV4TzgLIryyQhsbyuxsKCumMDcbjQbC0RSBcIyR8CihaJyUlM7Ip5+LkJk/QTLm+SHL6fsHZERRwKLXk2M2YjXpsZi0yLJA/3CApk4Pd9weOnq9pKTFWM9VWSgW/E0CpQXLcJavZP3K5dhyzGhFLbG4xHAowlB4lGgsQUqSvlFQoBEFDBkZ5FqM5FpMGPVaJBIM+ka519XHrfsddA4Mkkiqz9J+W1iUV1gAmA16xecryGN1SQErC2yYDQZiyQSBSIJAJEowGiOWUF5hMfZ02ti2TqvFYtCRZdJjNekx6LREogk8g4O0dPXzdd8gvcM+QqNR9T0q30IWTXiTEUUBo07H+pV2qteVU15ciN4AsZiMPxzDGwjhi4wiyzJWk5F8q4Vskx6DQSSRlPi6b4TG5lbuuLsIjkaRJVl9dvZbzmMR3mREUcSWlam8jKe4gNKiHHJMFhAEJBk0AvgjYboHRmjt6afV08+DoRHVqn3HeOwrF5Ik0T/ip3/Ez417bViMBgpzsti5aS0mnY4rriZ6BkcIj0aJJdTUyHeVJV0ySyRTjATDjATD3O16sJRdUXnMqDcJqCwJqvBUlgRVeCpLgio8lSVBFZ7KkqAKT2VJ+D91fTSLDrhcvQAAAABJRU5ErkJggg==;" vertex="1" parent="1">
          <mxGeometry x="970" y="66.5" width="158" height="50" as="geometry" />
        </mxCell>
        <mxCell id="wxUmsyt3SwMRj_RHBpdB-45" style="edgeStyle=orthogonalEdgeStyle;rounded=0;orthogonalLoop=1;jettySize=auto;html=1;" edge="1" parent="1" source="wxUmsyt3SwMRj_RHBpdB-11" target="wxUmsyt3SwMRj_RHBpdB-40">
          <mxGeometry relative="1" as="geometry" />
        </mxCell>
        <mxCell id="wxUmsyt3SwMRj_RHBpdB-11" value="" style="shape=image;verticalLabelPosition=bottom;labelBackgroundColor=#ffffff;verticalAlign=top;aspect=fixed;imageAspect=0;image=data:image/png,iVBORw0KGgoAAAANSUhEUgAAAMQAAADICAYAAAC3ZE4QAAAgAElEQVR4nOy9eZxcZZX//37uVntVd1dv6ew7JJAN2RIWAUUDQRDRmUGdcXT8OYwy8uUH44Y66iyoM6Mz6tf5jYyMKMqIA4IMIAYMkBA2SUhIICvZOr1v1bXf5fz+uNWV7vSSzgKETr19FUIt9z5VfT/3Oec85zlHiYhQoUIFALS3egAVKpxMVARRocIgKoKoUGEQFUFUqDCIiiAqVBhERRAVKgyiIogKFQZREUSFCoOoCKJChUFUBFGhwiAqgqhQYRAVQVSoMIiKICpUGITxVg/g1GNwcrF6y0ZRYWQqgjjBeK6L6zr+w3HxPBfXcbCLBRzHxnNdxPNAKTRdR9cNTNPEsCw0Tfef03Q03UA3DDStMom/mVQEcZy4rkMhl6OQz5LLpOnv66Gns43+vm76erop5DIUC4WhgsCfG5SmlQVhWgFMK0AkFieaqCGWqKYqWU8sniAYjhAMhbECQTS98id7I1GVDUJHj+d5ZPr76OvupLernc62g3S3t9Dd0Uo+l2XgJz3Wn1apQ6ZUJBYnWddIXWMTyYYmEjV1RBPVhCNxNF0/Id+nwiEqgjgKHLtIe8sBOlr203pgL52tB0j1duPY9jFf/ONF13WCwSBVyVoamqaSrJ9MVV0jyfomrGDoDT33qURFEOOgkMtycN9u9u7YStvB/fR1t1PI599wEYyErmsELItoLEasqobqukYmTZ1D47RZhCKxN308E42KIMbAsYsceH0n2za/SPvBfaR6unBd960eFkopDEMnHA5hGgahSIyq2kamzzuDKTPnV2aM46AiiBEQEXq72tn47Br27HiVbH8K13Xe6mENQ9N0IuEAhmGCUgSCIRqmzGDBWRdQ2zAZVYlQHTUVQRyG57ls2/Qiz/3+EdKpXjzPe6uHNCZKKSLhEIZhIAgKRSAYZuE5F3L6kvPRjUpU6mioCKKEiJBL9/P0Y/ez45UNJ70QBqNpGuFwEF3TERFEBKUUU2bNZ/m7ryEUjQ+JXFUYnYog8H2F1gN7eOqR++hub8F7G/4khqETCgZRSiFQEgXEq5Kc/+5rqJ883TetKozJKS+IfC7Drldf5sUnH6Ovt/utHs5xYVkmAcsCpUoRMEEEovEEyy54D9PnLsAKBN/qYZ7UnNKCyGb6eW3j82x89knSqd63ejjHjaYpAlYAwzSGCEJEiMWrWXTeO5m9YElFFGNwyoYhcpk0r254jk3PPUWmv++tHs4JwfOEom2P6P/0p3rY/MJT7Nm2GccuvgWje3twSgqiWMizY8sGNj3/NP19vW/JAtsbheu6OM4IayUCqZ4uNr/wNM17d76tggZvJqecIDzPpXnPTjY88wT9fT0Iw8WglELTNHRdQ9d1/6FpaJqGpp380Rp7lFlCROjuaGPTs0/S29n2Fozs5OeUE0RfTxfrH/8NqcMc6IHVX8sysSwT0zAwDKMkCO2w/9fRNO2kDWV6nofrjjwDiHi0Ne9hy0vryWczb/LITn5OqVUbz3V59vGH6GpvLZtJSilMw0A3dBTguh65XIF0NkehaOM4LkqBoeuEQgGi4RCGoZecVYXneSelyWXbNoahMdImJMdx2b7peabNOY1ps08/aYX9VnBKCWLHlpfZs+2V8gWs67q/witCKp2lu6eX/nQOZ7R8pR4/khMNhUjWJAgGrPLFdLKJwvM8xAM1ig3g2A4vrHmE+knTCEWib+7gTmJOGZMpm07x7OMPYjuOPyuYJrqukc5k2HOghd17m+nuTY8uhhKeJ6QyWfY2t9HW1UPRtlFKnZR3Wcd1GMFFAnwB93S0suH5dW/uoE5yTglBiAibX1hLur+v7Cs4rktrRzd7m9tI9WfKK7vjxfM8enr7aevoJl8olgRxconCcdwxh+R6HmufeIT+1MQIO58ITglBpPt62PHKS7iui2HoFAo2za0ddHT1jhyiHCciQjqTo6O7l2LRLgnq5BGF79+MEV4VsHMZnl+75s0b1EnOKSGInVs3ku7vQ9d18kWb5raO8qxwvAiQzuTo7U/jed5RzTJvBt4o0Sbwx24aBuuffoJisfDmDeokZsILwi4W2L97G45t44nQ3NJOJps/oecQEXr70hSK9gk97onA9bwx5izBMHS6Otp5fcf2N3FUJy8TXhDdHW2k+3rRNI19za1kc2/MndB2Xfoz2ZMuU/ZIK9KapigWCmze+MKbNKKTmwkviI6WfeSyaTq6eklncm/YeRTQn86dhOHXkdbiD3+Px56d296U8ZzsTPh1iLaD+0mn03T09JZTMgzDwDAtQuEwSily2Sx2sYDtOH4RsWOkaNuIJ6CfPI6En/Q6UAlqpNcFEY9Mup/WgwdobJrypo7vZGNCC8JzXexCns7uXsQTYokqZs+dz9nLL2bWvNOIxRMopUj3p9izcwfPr/s9O17bSn+q75ju9J4ItuOg69Yb8G2OlYGNpSMzMIMU8nlaDuyrCOKtHsAbSbGYJ5/Pk83laZoyjXdd+X7OOu8CjMP2GcfiVZy57GwWLlnGi888zWMP3UdL8/5xi8IKBBHPo1gsvqFVOZTS0A0T17HHDqcOY/QZwrb9hcpCIU97a/MJGefbmQktCE3TiVXXMW/BIi694mrmnraQsdYJNE3nHcsvIhyNct/P/4u2lgOMpQlN06mqqWXyjNl4nseBvbvesFqsumkRra4jmqglm+6jv6sF5zhDpUop8sUiCoXrOKRTqRM02rcvE1oQViDI0vMu5oyzllPX0MB4Fs00TWPe6Wdy4WXv4Tf33k0+P3KIVjcMmqbOZM6CJSQbGlFKo27SFNId+0l3HuRELkiYgRDJyTOpapiGFQyTsItE4jV07NtOIZcexxFGH0suV0ApPzybrWS/TmxBANTU1h31Z6xAgNPOWMzmDS+ybcumYaaTpjSmzZ7P6YvPJhqvKj9fP2kKVdXVdARCdDbvOiH5TYYVpGHmAhJ1TeilIgGGaVEzaTpWKMzBHZvIZ0a/syulUKOYTJ4I+YI/y4jnlaoReqjRMgJPAU7db34EapJ1zJ2/YJgJJCI0Tp3OGWedXxbD4CRrKxihYebpVDdOP+4QrCtQO20+VfVTymLQVOlcShGtrqdp3mKsQHjsA40izGLRximtZIsItl085XfSVQQxClYgSKKmZlihr1A0yjsufBehsJ8ybenCrJoCs6oLmLovAMMK0DhzAeF4zbGJQils2yFUM4m6KbPKVb5rQg4L6nLUhJzyNR5JJGmcvXDU2UhTI0eYlIJ0NjfER5LyP05dKoIYBT9FPIAxqB+D57mcd/F7CYYiABiaMDVRZFLcpilhMy1RRFP+FWWFQjTMOv2YnGzxPFJZm9OWnFe+0BNBlxnVRWrCLvPrCsQtrzROjWhNAzVNM0aMPGmaNuo1ns5kGayAkyw38S2hIojREPG7AA2YECJMmjqTxsnTAN90qYs4TIo5DCR+T47b1Ied0iWmCEWrqGqY6v+XpqFKHYI03UDTzUEPA003UJqO0jS6elIseMcKBv48QcNjcswmWhKBoQmn1+cxtNKMZFok6qZgBiPDvsZogiwUHXK5Q9U3lFIEgkE07dTuOTHhnepjxXEdsun+QyVblOL0RWeXc5XCpseUuF2eEQaYlSzSlTewXYVpBamqn4pTLBIIRwiEY5iBELppoet+gWJE8DwHxy5iF3JkUr04Rpz6KdMBQVNQE3KpjQwttmzpHnOTBba2B1EKgtE48WQDXc2vDzGfdH1kQaQymSF5V7quEw5HT8qNTm8mFUGMQjaTpqOtpewDxKuTJJK1gH8d14QcQpY3zOY2NGF6osiOrgBKQbSmnmhNvV+Jexz+RLIJpsqhtWVT92iMjZxFWxtxiFoeGVvDMAOEYtXoxgG8UqVypSmUpg3zYzzPoz+dHbKIqOsG0Xh8fD/OBKZiMo1Cd0cHO7e9Wt5k0zBpKnrJn9CUUB8ZfXtmXdRBV4eKGKjSTDBeBu7SCoiYHhFr5MiPApridunQimA4hhU6ZDYZo7TcymTzw1LVrYBFbX3juMc4UakIYgSKxQKv79pOe+vB8nNVtfXlaE9AF392GAVDE2JjvD5uFCSCY+1ngETALUWcBDMQwgyEyjPCSIJwXY9UOoNtDzXBAsEQk6dOP/4xv82pCGIEeru7eGHdGhzHv2g0TS9nxgKEzLF3xikFsaB3NJPCyMdBiFpj50YZumCWnGvfNynNYpqGNoL/kM3nyWSHp6mHwhEaJp3aiX1Q8SGG4TgOLzzzJAf27TlUu0nTMIxDJWcC+uhXeqao0ZU16M7px529IaJoTpnYrqI65JbXOQajlGBogu0ptFKUamAnnFJqiChd16W/P0uhOLS2q6ZpTJo8FSsQOL4BTwAqgjiM5n17+P2jD5VnBxgIzY99u+8vaBxIWfTmdVxP4Z2ABS4BenIGfQWdoC7UR20aog7WGIIEhUKVZ4rBZLJ5elP9w2Yuy7I47YzFxz/gCUBFEIMo5HP81w+/MyzJzfM8HNcp7ywouodu/QVHsb/Poi1j4HonPmQpgOspMp5id0+A1n6TmTVFakIOmgJB4ZTO63ku4nkYhjGsBq1tO/T09VMo2sNCq6ZlsWDRshM+9rcjFUGUKBTy3HPnvw9xpAfwXJd8Not4gtIUGVvDFUjldPb2BkgV3hxXTAE5R2NrR5BJEZvpNUUcV2GXBOE6RTzPwTSN0kU/0EDeoz+Toae3f8R1hhmz5xOLJ96U73CyU3GqgWKhwJO/e5gNL64fNfeot6sdz/Md3KKjONhnsr3zzRPDEAQOpk1ebQvSmTHK5pmdz4FbRD8supQv2LR2dI9Y6dw0TS687L1vxqjfFpzyM4Rj22x8cT1rfvsbioWRG4louk5/dxee64Jh4opiT4+FvIWJPwroK+ikijqaApTCsfOIaw9ZjHNdl5b2LvKjfLfGpikV/2EQp/QM4Xkur215mdX/ez99vSO31NI0RcA0qUomy+sQwFsqhsGUJzQRTCuEOahdlgi0dfTQ29c/4mc1TePCy947bEvtqcyp+0uI8PrO7ax++Ne0NB8Y0VTSdZ1YNEwoFKZpxpwRIzcnE8FogmCsBqeQA4SOrl7aOkdvJDl56jQWnXXumzfAtwGn7AzR2tLM7x/9Da/v2D5iYQBD10hWx4lFwiQbJhONV5/0iW+abhCKJ9HNAN09KVrbu0bd8GMYBhe/+0qi0dibPMqTm1NSEKneHp5e/QhbNr2EPUIDQk1XJGsSJKv8i6WqbhJWMPRmD/OYCEaryRQ8DrZ1jlpaUwFzT1vI/IWLhpiBFU5BQRQLBV5c/zTr1qymMEIBAaUU9TU1NNQmsR0PzQwRjiVKK8BHQg16cNi/Hy2Hf3Z8xzECQfKuomiPnvIRjkS5+N1XUp08+v3mE52T2yg+wYh47Nj2Cv973z2jVrturK+hIVmN7Tjkcnni9VMIhiOjZ6uWKt85+QyF/i7sXBpxbAQPzQxihmIE4rUYgfC4TC7Pc7HTfeT7O3CLOcR1UZqGboawogmsSDWaaY1eCECEZEMT+3Zvx806w142DJ3lF1/GrHmnjbx5SASkJCalQJ1aM8gpJYiWAwe4585/J5fLDntN1zUa65LU1SSwHZdi0cZ1PSLRBIHAyOaS5zoU0z3kupqRYj+WqREPWlgRE/CLf+VSfRTsDHrDbJRx5FwhN9NDrm0HAVMRCpoYho7reuQLfeQ7Osm2aVjxOkI1TRiB8LACAiJCdbIOfYSdb5qmMXveAs4670KisZH3PkiuDel4Cew+VHQ6qu4s0E+dHKdTRhCp3h5+dfcddHd2DnvNNHQa6mqorU7gOC6u6+KJIEojEAyh6fqQJo0AbjFPf9s+CqlW4hGThum11NZECYctdF3zu5jqGvm8Q29Oo8/VSRWknGZxOAoImh6TGiPEJ8+mOhZAKUXRsXEcD9t2SaVztLb30dnZSldvB/GmOYSrG4ChPe5C4SiBYIhM+lB5GqUUdQ2NXHDpe5g6cxZ4DuLmQGRon7xiCuneiPS8gjbjA2CnUV7R368tJf1pli+SCViu5pQQRLFYYPUjv2b71leGhVct06C+tpqaqjh2SQzgF+7SDRPdCuC6Lp2dnaRSKbLZLNlsllR3O90HdmGaGlVVITzl7zVQSqHrGvFIkJpEjJrqGLXVcRLxBGGzhpQXR5SJPkhknutgqRyBYi+p3m729PbT3ZOiq6+fnr4s+eJAeRiFaegU8zY9PVlM6yUaZi8iFA4TLj1qa2uJRWNYgWAp29U/R6KqmovedQVnLj0bVejB69qMZPaBbqKUAQjiFsHJQbEXsJBCJxx8AhEPKZbWMjQDFapFxWaj4jNBDzKROCUEsfHFZ3n2qd8PC0H6YqihOhHDdd1yb2cRwXMFTfd7Vff09vKrX/2KHTt20N/fTzqdppDPUVMVZ96cmTQ4dYTDISwrgKkb5G2Xvk6bHfub6erqpj/VR8DSqE9WI1Y18xYs5iMf+QgiwoEDB7jn3ntJ9zSTS/fQ3tlDMBQhHq+iprYa3TAxDd9ks22HQsYm1Zdh3/5mXt22G1GPE4vFiEajxONxVq5cyUUXXYQVDJb3bIfDES649D2cs+JiTJXHO/A7vAOP+xd/sBpRCsSDQh84BUADK450b/FfK/ZDMe0fzwghgQQqvAVtyuWomjNAM9/sP+kbxoQXRMuBfTz9+KNkM0NLPpqGQX2ymup4bMRG554n6IZfJSOby7Fx40Z27NgBQDBg8eEPvY/3XXEZ06Y0kaxOEAwF/abumvKrgNsOmUyW9o5utu3czb2/fpRfPvQ0+UKB+fM38/nPfx7P89i6dSv/ddddZNJppk1t4o8/eBUXL38HUyY1UlOTwLKs8s431/OwHYd0Okt7Ryevbd/Nv//4F7zw0mbAN4vOOOMMPE8wzQAKhWGaXPLeVVx42XuJRGN4HS/gta73L34r4ef/iYCdB7sACBgB0E3/Nafgi0HEd7D1EHgekt6Pd/BJtMgUVGjiRKsmtCDsYpF1ax7jwN7Xh8wOuq5Tl6yiuiqO57nDxODjdyVVlHafDYrIXLTiHL725ZuYlCwt1o1S4auuOsGMqZNYeuZ8zj17Cbd86XYeXf00O3bsoKWlherqal577TX6+/tprK/lls/+Bdd/4AoSsegY+7AVDckqZk9v4uwlC5k9dybXXf9XdHb1QGmsA/u4Tcvkqg9cz3kXXko4GvXHmO+EfDdoARgo2y8e2P3+65oBRtD3D0TATh/qL6EH/dcB7ByS2gVOBpg4gph4XtEgXtvyMls3bRyy3qBpGrU1CepqqkacGcqIbzq5rktdbS2XX3450ahfre+9ly6nqT7p10wVD/Ao3WoPe3ggHqahMXfWNK573+XUVCewbZu1a9eRTqd57rnnAFh+7lLe887zqYpFBh139GMiHoauOGPBXBYvnI+maSxdupSzzjoLwzQIhoN89JM3cuFl7y2JwUfpQTBDYIZLTrEqXfS+j4I+IBTlm1ReaXFP08GM+M+7Ljh5lBE+JJAJwsT6NoPIZjJs+sPzw/Y3VMUjTK6vpWDbY/dyUL6z67kOlmXxoQ99iM2bN/Pkk0/S1FAHnjfsDt6fzpPqz+GKSygQoCoRxjR8c0eJR31tNZZpoClFXA6ipXcR0/zNSNWJGLFIaMgxs7kCvaksrusRDJgkYiEsa6i9biDU11ZTX1/PVVddxemnn46uaXzgT/6cuvr6w9YaFCROQ9WegfRsL+nLBrsUhtYMKPkriAtOtiQUwIiVQkweeHlQHqrxPFSwdlx/j7cLE3KGEBG2bX2ZbVs3DTGVopEQ06dMongkMeDXRHUdB8f275BKKZLJJADhcLC0eFWaHcSjqydFR3cf+VJrrlQ6Q2t7D7Zt++9R0NXTi+04nH/WaVx+yUKqVSfXv/9CqhNRUv1pMtlM+Zj96SwH27rJ5QsUbZu+/iytHb3k8vlD58VDIYSCAYLBIJFIpFQ2RwiFwyMuvKnIJLSp70OZSXDykOny/QS3OLA9z/clcn2+UJwC/oYLVfInsmD3ozVdhDbpkkqU6e1Auj/Fjq2v0N3ZUX4uHAoye/oUbNvBGUeXH6VpuI5dLvolIkSjvm3vum5pRdcXm+t6GJpGQzKGYfg2vOcJxaJDsWhjGgqUsOv1/eRzBT7y/ksgVwClaGpMcu6S+Rxsaaezq5eZ05pAhKLtMKk2jmHq5eMVCjZKBBncD1s8XM/DNE1CIf/ubhjGsE1CQ75bdCrS9hre64+DN7CarXyzCL9IAV5J8BqgaShD868W3fNNrhkrIVA12inetkw4QYgIB/fv5bUth2aHQMBk+pRGxPOGFA8YDb85o/IrZw9atKqr853Hzq4eUFI2b3RdkYgPX80NBgYuSqGQy7Ftx26ikSBXXn5++bNNtQneuXwx//euhznQ3sE78MvPJKuGr44PPt4ALh49vSlCoRDxUuU9v5HiEaoceA7ke33TD0DpqKqZqNqFgCDpZqRvK6icn72hFLj4D+3oCq+9nZhwJlOxUGDv7h10trUA/t2yqaEO0zAo2uNvrK6UQjeMcl8Gz/OYMWMGmqaxdfsu/00i43sAW1/dyfZde/nglSuoqT6Uch0OBTlv2WnUVkfZ9Mo2+vvT4z9uqcnj63ubicfj1NbWlsd61L3udAs1cyX6qp/4j8u+hdYwC2UpXwCnCBNOEP19vWzbsgnX81eN62qqiIaDJVv+KBDBCgTLad8iwuzZs4nH4zz74ibsUoWL8TyyuTwPProGU3l8+AOXERxs24uweMFMrrzsHJ74/Xq2v77P9wPG9RDaWto52NbJ1KlTicVi5bHmckfZM1sDyEKhx69S3ngeatJFE85HOBITShAiQk93J/v37EZEiEXDVCeiZUfzaI7jeUIwHCMcS5Q/Gw6Hed/VV7N91z7WPPX8IdNhjIfreTz+1HM8/NjT/NE1FzN/1uRhWa/xSJAPrbqQWMjg3398L919qfHNEIbirp8/QCgcYcWKFWUT0XVduru7x9cNSIGyQAWLSMtvcR//S7w9vwUjiHban0Ggevx/gAnAhBKEY9vs3b2DXC6DaRgkqxJomhp9rWEEdF1n9pxZzJs/l9Pmz2Bq0qI+4lAbdqgJFPnkR97P9Okz+Mfv/KdvOukD5V68YY+i6/DwE+v4x+/8J+cvncMH3rOcgK7jOO7Qh+0yZ3ojN/75VWx8+RX+5m+/S1dfH+iMeFyUgKHxi3sf5mf3PsL7rricC5bNJRm0qQs71IUdAk4PYqcRux/c3PAvKv6qowoBIeU7y4VWJLcH6d6EpPaikktQU94zIZP4RmNCOdXFYoFXN7+M53pU18SJhINHbUvrhs4l774UwzRQdgqV7x66CF2n8ZN/uYlP3/ZDPvz/3MYnP3oNV7x7BZMn1WGavr+RSWd5acsOfnbPQ/x+7Qtcd8UKPvXhleBp7G/uGfnESrF0wVz+6baP84Xbf8KKlR/nM5/4ICsvv5DpTQ0YARM8IZ3JsHX7Hn700/u576E1fOIjH+C2T7+PSOAwk1Arojtd4CrECKP0w5x0XVBRhvgHKjwJbfGNSLYD6XgJFZ+OvvgmnB1344tx4jOhBFHI52ne9zqWZRGPhoFxRFsGkS8UcVyPYtEmHA6BmIjGsIjKghlJfv3/3cqvH13PT3/1KN/81zsxLYtQMIDreeTzBYKWzqXLF3P3925h2Zlz6elO09WdHjUcOjBbnLP4NJ645x+496Gn+dl9T/DP//4zDN0gYFl4nkcml8PUdS4+ZwG/u+fbLFswpRQpOux7ajo4th8dGuEG7wYAHbTyxzSoWYQ276N4zb9Hul9DMq2o6oWo2e9Hdv43Q3cCTkwmlCB6uzspFnJEQkEioSD2OEKsg3FcjznzZqBUKQ7vFHzTYoQ8pUQkwJ9d904+eu3FdPX209nTT9FxMA2dRCRMY101ulHKBxKoqYrQ2p6iJ5WlKhbGKK1giwi5vE0ml2fmtFqCAQMFfPTaS/nIBy4jm8nT2t1LNldAgEgoQFNdDaGg5R97VD9B/IW1QNT/Lm6+7CBnsjm+8t8FVgSEKxYJulIQqEab9X4wo2BEkH2/ReqWocINaMu+gnvgKbC7/QU83Zqwm4YmlCDaWpsBiEZDQ9pFjQcpLbStuHA5iaoqP3nN7mdMU0H8Fe266jh11SPsQBtU8VjTFKfPm8SW1w7Q3NpDsiaGoWtkcwXyBZtZ0+toqI0P3UUtQiQcYHa4YaQBj/2FPBsp9qECUaCAeHk/jwk4eLCFbMEho2mIcgGFqjoNNes6KKaRvb9F2p5Bdv0P1J+FVnUaXH4P7jP/L3S9iApUQyA59vnfpkwob+ng/v1omkY0HDpq38F2XBSK9WvXk8/n/fRnM8aJNA90TbFw/mTqa2Psb+5kf3MXqf4cM6fXMrmx6sSWuVEaKlCq12oGUfqhXtYzZ87kC5/+I649vwYDBZqFNu96lB7A63gJaVkDFPFevx/p3gpeEVV1Osos5TNVzUUl5p24sZ5ETKgZoruzjVAggK5pR92AXPzbPTt37GLOjt0sPHMByowgTsY3E04Quq6xYP5kTFOnL5VjyqRqmk60GKBk+oT9tAsV8bd9ljAMg8C0i/AOngFdTwGCdG3BffEb/qagnlf8NxY6cDd8C5U8059x0q/7plXDClR02okd70nCxBGECN2dnUTCwXHlKh2OaRiIJ3ieR6FQqsihjqeMzOjoGsybPYlC0SNoab7PcqIZCJVqGocbAq7rYhOiMPcGArltqEwL3tYf+q5SqT2XfwyQfQ8h+/+3NHADbdp7UNPfP6F2yQ1mwphMgl9IIBwKHN0KbQlNKfRSkeCd23fR1dkFhuWnQx/j3dvzPLK5IoWig+v4ey9s0fFCk5HqRQSnnIuWXIBYtTiewvU8HMcll7OH9JA++i9joswoGAZKCw1bbc5kMhTyOeza89CXfwei9f7ahhrYczGIAYHoCjVpOdqS21DxWcc+tpOciTNDAJ5nox2DuaO9leIAACAASURBVDQUxb69+3j4N49y/opzmTN3JqLpfiKcHN3M43mQThfI5ooozY9WWbF6ahvm+Xdbw0RptRRtg66DLdj5tJ9oKkJtzfAm7ONCD6JCtWBFUFbS94MG1Vby22r1UygUsCwLNe196LHpeC9/CznwW7AzMLgyiAaE6tDmfgxtwV+iolMn9ELdhBLESE0GjwbTNED5lTf6evvo6enFFYV2jLvCDEMjGg2Qy9vYpUp6Tl8nqbadaLrlb01VilxfG7n+FFL6XywcIBo5trCm0nSwAhAIlkrFDKpYLkJvby+9vb2HEgA1E63ubLR3/hRJv4638x68bf8J2VZUcjHaolvQprwLrOoJayYNRsmx2BcnISLCV276BA01MbzjbPDmOC6O66HrOlOnTWbRkkVMbkoSIIchBX+mGGUf9UjkcjZdPRkKRQfP8/yL0fMXDTWl0HS/x4OmacRjQZLVI2/uGZnS3dwIoILVEEqirDjosSEXsIjQ19dHa2tr2UeKRqPMnDlz6LnExdv3ENL+LNr8v0DFZ49zHBODCTVD6Id13TxWNE1DE9/B3vP6Pvbs2UciEefcFRey6Jx3oDJtiJ2GYs5vUMIIK8WDCIVMJgUSpFI5Wtp76e3LlhcNlVKEghb1yRj1tXGCQeuILoug+TOBboIV9QUQrC3tcQ4OM2ls2yaVStHe3k6xWBzbx1I62vT3wfT3MZFXpEdjQgniRFWy1jSFpRl4np+tKiK4jkdyyny0QCNYdeDkyfd30te5H8PLY2guhuahK0FXoCsZEj3SNUV1VZiqRKjkPPt9rDVNYega+ijmnicKVxSuB45ouJ6GjYkVriZROx1lRPyZYAQVOY5DPp+np6eH3t7eIWszruuOMQudekIYYMIIQin8xoFy4tYMNE2hlO+kzz1jKXWNk0sn03GwONjjcLAdlGdi6iZBUzA1l4DhN1M3NQ9dOyQQ3ywSFDpK9y87AYqeb4W5onAFPM8XgeOB42kUXI2iq1Fw/A6ojqcIRz1OTwYIB6whY3ZdF9u2KRQKpNNp+vr6sG17yKwgpdnPNM2TvufFm82EEQQokg2NpFr3jdOyHx+eJ1jBEHNOX0Sg1K5qwB7v6OjALZk+jgc5G0o524C/3mBo4s8aGmj44kDJkAvR3/Lpi8EVhecpHGGUftd+aDSTTrN//35mz56N4zgUi8WyEPL5PPl8fpgQBvCrFLrlPdgVDjGBBAH1DZNJte47YcfzLyYhWd9Eoqa23COiUCjQ2dlJsTj2bOR6lHpXD78LD6yByYivHhnP8+jo6CjVktWxbRvHccqboUbzE0QE2/Z7VQeDwcoMcRgTKqA8efrMcTY2GR9+wTqNxsnTCIWjpeeElpaWchz/WDkRidSO49De3k5/fz/5fH6IIEbDtm1s2yYSiVSaLY7AhBJEfWPTiV00UiVnOFmHVTKXent7yWaziAiWZZU3BY2HgZ2fmvJNKVMT9NKGhGONjrmue8SZaoBisUg+n0fXdZLJ5FGN/VRhQt0iYvEq4jW19Ha0HlP6xjD8rQwYplXu/dzW1lYuWKBpGoFAYFxVLqKWR33YIR5yCRoehiYoBM9TFFxFf1GnM2PQk9dxPTXubBERoVgsjjlbiUjZtwCwLItIJHIUax2nDhNKEGYgwPwzlvH8mkdOiCCUYkiPhd7e3mHHNQyDQCBAPp8fljJiaEIi4DElUSQecEe4yBW6DmFdCFsODVGHvK1xsN+gLW3ieGpcAQLP87Bte9gdX0TKoVfXdf0CyKZJY2Mj4XB4lKOd2kwoQRiGyZQZc9gUCg8rf39s+HfqbDqFXSyWc4AOxypt7ywUCmXBREyPyXGb+qh9VGWNgqbHrJoi9VGHPT0B+vIarox9gMMFMSCEgcgT+MUTQqEQkydPpqGhoTI7jMKE+lWUUsSqapg8fc6J+YMr/+JqP7ifTDo1ZtW/QCDgJ8spSARc5tYWaIwdnRgGE7U8TqvL0xhzMLQjzxNeqSqh4zjkcjmy2eyQaFJjYyMzZ86kflgB5AqDmVAzBEA4EmP63AXs272NQn6E8itHgcIXRNvBffR0tuNqo9vpSikCgQC6Jsyp7iNiHf2ejMMxNGFaVRFNCQf7zVIId2Rc1y2bbQOmm6ZpRCIRmpqaqKurq0SVxsGEu1XohkH95Ok0TJ5+gmLsikw6xZ6d28gfQWCaphEMBOlzoxS9E3PxmZrQFLOpDbtjhmgHzKQBMei6Tn19PbNnz6axsbEihnEy4QQBUJWsY9rchRjW8a/EKgXiuvT0dJPLDm/nezgeGl2FKAeyVaTsUc5/lEINGEJj1CYaOPKso2ka4XCYmTNnMmPGDKqq3oDtqROYCSkIwzCYs2ARDVNmYR9F1b7RUJqGFYyQLxTGFfMXFGknSHMuwcFcFbY3KOlQKe761Wq6+47O6Y8FXGpCLvoY2001TaOmpoZ58+YxadIkgsFTqy7riWBCCgL8NYnF515AIJygaB9dfabD0U0TMxhGBHK53LgXwmzPoKsQYV+2hrQTwPGEr/7L3dz8jTv49aPrSvudx4emIBlyCJujC9wwDOrq6kgkEmP2h6gwOhNWEEopZs9fwKJ3nE+24JIvFI856S8QjJRTywdygVzXPeJax4ChknEsdqcSfPprP6OltZNH7/oG11/3rlGT70YjEvAImqO/33Gc8npDhWNjwnta57/zcro62vjD+qcJFGxikRBK18adQyQimMEImnbojjuQSBcIBPyFOV2wDL/RiULQlGAoD0NzMTUPQ7k0t7Sya9cu+vtTfOYr/5e66jhnzJ/BrX/5AWqqYmOM4BBKQTTg0pPTcUaJOA2IojJDHBsTXhCmZfGea/6IfC7Hy394joJtE4uEsUxj1E05w44RDKHpQ38qESmnQtRW20yO2r4YkKGlXErS25frZt70OjZuTfPBVReQzuTZuaelXNJyXAhETT+d3BlB0kqp8uxVEcSxMWFNpsGEI1GuuO7DLDrrHARFbypNKp0lXygeuVS+CKYVRI1ygWkKdM1DVx6akkHpq0PTvvv7s/T1Z3n/FSv43p2/Ye7sKfzgHz9dKso8fizdG3Oxr1gsHn33oAplJvwMMUCiqporrr2ecDjKS8+tJZfPU7RtLNMkYBlYpoluaKjD77xKoRsW2ihZtAp8IYyFUmQKBZpbu7jlxj/iQHM7+VyeaDjk93w+CsYSw4B/c3xleE5tThlBAFTVJLlk5dVEYjGef/r3pPv7yBeKFG0H07AxDB3LNDBNA70UAdI0zS9vM4qjKoAcIdcIYOHcaXzuhuuYOamOz//Vh0hWx45aDAPnG80BOnxxrsLRc0oJAiBeVc2KS95DVXWSdU/8lraWZjwRbNvBdvw2urquYxgapmH4adVj7LHwhBG2eR6GCJMbkkxu8CtmV0WPfcHQdkevLDKu7qMVxuSUE4RSinA0xtJzL6B+0mSeeuwhdr72SrlBu+t5frUNV1EsOhRsv7zkaAhQdBWup8qbfd5Ico6GN8aMVBHF8XFKONUjYZgm02bN5UN/fgPvvvpDRGND+zuICF7p4pIxgrQKyNg6BffNif2nCxr2GEl+FY6PU26GGIxSikAwxAWXvpeFi89izaMP8tqmP/hZo+5Igc2RSRc08o425iryiaDgKLK2hiejuhEVjpNTWhCDqU7W8f4Pf4KDF13GH9Y/yevbXyXTn/JDmEe4+mxX0ZvTiQfcce1dOBYE6MkZZO3xLypWOHoqgjiMpqkzaGyaSkdbCzu2buLg/j3E41Xl9OkBG/3wSE57xqAm7JAIjp2mfawUHI2unE7xMNNMKYWmaeWtrgP/XuHYqAhiBDRdp6FpCvWTJpPuT9Ha2kY6kymLYGDL5uAQZ8FVNKdMwqaHpZ/YWcLxFB0Zg7780MVB0zQxDANd18siCIVClR1xx0FFEGOglCIciRIK95PL58sXnR+WNbBtm2KxiOP4/kZ31mC/IcysLh55sW6ceAI9OZ3WfqOcv6RpGqZpEggEhl38hmFUBHEcVARxBLRS+ZnDQ5kDFSw0TaNQKPiZq0Brv7/Rf0ZVEV2X8VbMHxERX2R7ey1yjn+R67pOIBAYtS5rJex6fFQEcQSUUqPa5Eqp8h25nFgnQku/SdFRTK8pEjaOPfLU3G/R3GeWQ7oDJW8MwxhxTIP9iQrHRkUQ42DARh/tzqtpGqFQCKUUxWIRT4TOrEHG1pgSt6mLOmPudDucVF5nT69Ff0HHLX3MNE2CweCYWawDplTFZDp2KoIYBwMX2Vg5QkopQqEQuq77pS6BrK2xvStAc8qkMWpTE3YJGN7wtCjxHedUwaAl5VfvGywfy7LKghsLpRSWZVVSv4+DiiDGQTAYxLKsce2Ssyy/d1w2my0LKGNr7OwJoPcKAUMIm4KleyhKZfQdjZztr0APvuQHLvDxVuke6PlQEcSxUxHEOAiFQoRCIXK58dV5MgyDSCRCLpcri0jhdwPK2YqcDTKoj8RIlcA1TSsLcTwMiMcvllbxIY6VirE5DnRdJxwOH1Vto9E+M+Cka0qV9lIMd9oHfJKjKbevaRqxWKzSBOU4qcwQ4ySRSJDL5ejp6Rn3jjRN04aYWpZlEQgEhplAtm2Xq3m4rnvUZfYHylUmEolKifvjZMK05X0zKBQKtLW1lfs8j4eBBiaJRIJEIlE2awYiQQObegqFAplMhq6uLoBxmz0DznxjYyOxWKxiLh0nFUEcJYVCgQMHDpBOp4/oYA/UVk0mk4TD4SM2OXRdl1wuR19fH93d3eOaiSzLoqmpiUQiURHDCaBiMh0lgUCAhoYG8vlCqdT8yKJQSpULDY83SqTrOtFotJyP1NXVNWbFcaV8wcXj8YoYThAVQRwFIh7ZnoPketowsl0wxk46PVpPdU3NMTm5uq7T2NhIX28PpNtRMvJ5NKXQ9H76WwtEkpMxApGjPleFoVQEMU48u0DHjmfIdO3HcfwU77Hc12jAoSqx9JjPp5SiOuiSbm9mrEo5uVwLha6d9LdWUz1jGZGayVS2Dx07lbDrOOlt3kK66+CY+6sH47o22nGaMZYuQyoGjobneeT7u0m37sTOZ47rnKc6FUGMA/FciuluPNce/2dOwF1aaSMn8Y2E5wn5dA92tu+4z3sqUzGZxokVThCIpJDxhFuVIlQ16aj7QBxOIFZLIFqNKuTH8W6FFUmgm4HjOuepTiXsOk6K2T7cfB9yxCJMoDSFEU5iBo/PyRXPI9fXCuOZmRToVgQrXIXSK/e5Y6UiiAoVBlHxISpUGERFEBUqDKIiiAoVBlERRIUKgzjucERbWxu5XI5wOExdXV05bu66LgcPHsTzPKZOnTpkn69t23R2dlIoFJgyZcqQPQOe59Hb20sqlaKhoaGc+mDbNgcOHCCTyWDbNqZpEovFaGxsJBAYX6jRcRz2798/7BgNDQ1jduzs7OwknU4TDAZpbGwc9npPTw+pVAoRGTLmw2lvbydbau07Y8aMIa+JCM3NzViWRW1tbfn3yufzNDc3k81mcRwHy7JIJBJvy97TLS0tuK7LpEmTTt5dfXKc/NVf/ZWsXLlSvvKVr0gqlSo/n8lk5MMf/rBcddVV0tvbO+QzGzdulE996lOycuVK2bFjx5DXOjo65Jvf/KasXLlSXnjhBfE8T9LptPz4xz+Wyy+/XObMmSN1dXUyZ84cueqqq+SHP/yhdHd3H3Gc6XRafvKTn8jll18uc+fOldraWpkzZ45ceeWV8v3vf186OjpG/Fw+n5fbb79drrjiCvn4xz8utm0Pe8+Pf/xjWbVqlaxcuVLuvvvuUcfwta99Ta644gpZuXKleJ435LXt27fLRz7yEbn77rulUCiIiEhnZ6f867/+q1x88cUyY8YMqaurk9NOO00++MEPyl133VV+39uFG2+8UT72sY9JV1fXWz2UUTkuQXR3d0skEhFAzjzzTHn88ceHvD5nzhwxDEPWrVs35PlvfetbUl1dLYD8/d///ZDX1qxZI4sXL5ba2lp5+umnRUTkH//xHyUQCMiSJUvkk5/8pNx4443y0Y9+VGbNmiWWZckXvvAFcV13zLF++9vfFsMwZNGiReVj/Omf/qnMmzdPLMuSW2+9VfL5/LDPPfXUU7Js2TKh1BtlJOHceuutommaADJnzpxhF7uIyP79++Xiiy8uH2fweLPZrHzjG9+QRYsWyfPPP19+/v/8n/8jwWBQli9fLn/5l38pn/nMZ+RP/uRPpLGxUQKBgHznO98Z8zufbCxevFhmzJghzc3Nb/VQRuW4BPH3f//3EggEZNmyZRIKheS2224bcge96qqrRNM0+cxnPlN+zvM8ufHGG8UwDNE0TaZPnz7kMz/72c8kFovJhz70Idm7d68UCgWprq6WRCIhq1evllQqJYVCQdrb2+W+++6TOXPmSDAYlHQ6Peo4i8WiTJkyRQKBgPzud7+TVColxWJROjo65MEHH5SFCxdKMBiUzs7OEb9jMBiU+vp6MQxjmIBFDgnCsixRSkl7e/uw93z/+9+Xurq6EQXx1FNPyZIlS+SLX/xieTbNZrOiaZrMnj1bnn32WclkMpLP56WlpUXuuusuqampkVgsdoS/0MnF20EQx2WE/uhHPyIej3PDDTfw2c9+lp07d9Le3k5TUxMAH//4x/nNb37Dk08+WbbZm5ub2b9/P3PmzKG3t5d9+/aRSqWoqalBRMhms2SzWc455xzq6urYtWsXmUyGZDLJJZdcUrat6+rquPrqq7n33nvJ5/P09vYSiYy8Mrx7924ymQyBQIBLL720fIza2lquvPJK7r//fnp7e0mn0ySTyfLnDh48yKuvvkooFOLGG2/ke9/7Ht/97nf5/Oc/P2Lto6uvvpqHH36Yb33rW3z7298ebJby2muv0dnZOay+U6FQ4A9/+AP79+9n8eLFJBIJALZs2YKIUFNTw7nnnlt+f2NjI9dffz0/+MEP2L9/P7lcruyzZDIZ1q1bx7p16+jo6KCxsZH3vve9nHPOOeVxrF+/nueff56LL76YtWvXsmnTJq699lq2bt3K/PnzWbVqVflcruty55130tvbyy233AJAf38/zzzzDM888wxdXV00NjZy5ZVXsnTp0vJnNm3axIYNG1iwYAEbNmzglVde4fbbbx/xb9PT08Pq1at56aWX6OnpYdasWaxatYoFCxaU35PL5Xj00Ud55plnaGlpYfr06Zx11llcffXVZV8kl8vx0EMP8dxzz9Ha2sqMGTM4++yzWbVq1dH5K8eqpKeffloMw5Bly5bJli1b5IILLpCmpib57//+77LJkM1mJRAIyMyZM6Wnp0dERO655x6ZNm2afPnLX5YbbrhBTNOU//mf/xER32a++eabBZA77rhDXNeVrq4uCQQCUlVVJatXrx5mGu3Zs0c2b948pj3d1dUltbW1EgwG5Xe/+92wY+zdu1c2b948zGT65S9/KfX19fKZz3xGDhw4IHPnzhVAtmzZMuR9AzPEXXfdJfX19VJVVTXEbNq6datcfvnlcumll0oymRwyQ7z66qty6aWXyrXXXis7d+4sf6alpaVsgr344ovDvtO2bdtk8+bN4jiOiIi0trbKl770JZk+fbpUV1dLNBqVeDwuc+fOle9///siIuI4jnzzm9+Uuro6mTdvniSTSQkEAvLkk09KTU2NXH/99UPOcfDgQVm8eLE0NTWJiO/ffe5zn5Pp06dLbW2tRKNRSSQSMn/+fPn5z38uIr7P9R//8R8yd+5cWbJkidTW1ko8Hpf29vZhM8SOHTvk4x//uDQ1NUl1dbVEIhGprq6Wc889t3xNFItF+drXvibTp0+XyZMny4IFCySZTMqMGTPk61//unieJ8ViUb74xS/K1KlTZcqUKeX3zJo1S26//fYRTdjROGZBrFy5UgC5//77JZ/Pyw9/+EPRdV3+4R/+YcjF2djYKJMmTZL169eLiMg///M/SzAYlHvuuUd27NghsVhMli1bJp7nyYsvvihnnnmmnHHGGbJmzRoR8U2ss846S5RSUl1dLcuWLZNbbrlFHnzwQeno6BjXl/U8T1asWCGAVFVVyeLFi+Xmm2+W+++/X9rb20c8huM48m//9m+iaZr853/+p7iuK3/6p38qSil517veNeS9A4L45S9/KUuXLhVd12X37t3l1//t3/5NQqGQ/OxnP5NFixYNEcTq1avFNE257bbbhgjVdV2ZNm2a6LouyWRSVqxYIV/+8pfLJt/h3+9Xv/qVBINBWbVqlTz33HPS1tYm9957rwBy2mmnSSaTEcdx5Gtf+5oAouu63HbbbfL73/9eOjo6BJALLrhADhw4UD7ul770JYlEIvLZz35WXNeV1atXSygUkssvv1yeffZZaWlpkR/96EdSVVUlyWRSRHxBfO973xNN06SqqkpuvfVWefzxx6VYLA4RRLFYlG984xsSDAblk5/8pGzfvl1aW1vLv/k111wj+Xy+fMNYunSpbN68Wbq6umTTpk0yb948WbZsmaxbt042bdokK1askLPPPlu2bdsmXV1d8sILL8icOXPk3HPPleeee+6I18gAxySI/v5+mTlzpiilpK+vTzzPkwcffFDi8bhcddVVsm3btvJ7//qv/1rC4bDceuutkslk5HOf+5zE43F57LHHRERkypQpEovFJJ1Oy+rVqyUSicgNN9wwxJ4vFovysY99TEKhkJimKbqui1JKDMOQd7/73bJx48YjjrlYLMonPvEJCQaDw45x6aWXygsvvDDkgty4caOcd955snDhQlmzZo14nictLS1iWZY0NDQMmU0GC+Kpp54SpZRcc801IuIL6+/+7u9E0zT5zW9+I0uXLh0iiMcee0wA+du//dthY+7q6pJrrrlGLMsq+1xKKTFNU6699tryxbtnzx654oorZM6cOfLggw+K67rlxxe/+EWJRqPy9a9/vSwIpZTccccd5RtXPp+Xj370o5JIJOTv/u7vyr/XJZdcIrquS19fn3R3d8vs2bNlwYIF8thjjw05x3XXXSeA/OIXvygLQtd1+Zd/+Zch/uFgQTzzzDNy9tlny3nnnScbNmwoHyuTycif/dmfydSpU+WnP/2pPPzww7JgwQI555xzZO/evWLbthSLRXn22Wfl9ttvlw0bNsivf/1rmTt3rixfvlwOHjwojuNIoVCQtWvXyre+9S3ZtGnTEa+PAY5pYe4HP/gBHR0dzJ49m1deeYX169fT0dHBtGnTePTRR3n55ZfLVSk++9nPks/nef7559mwYQNr1qzhyiuvZN68eQAsXLgQz/PYvn07uVyOQqFAbW0t8fihnm+maXLnnXdy8OBB7rvvPv7mb/6Giy++mIaGBp588kmWL1/Ovn37xhyzaZrccccdtLe388ADD/CFL3yBSy65hMbGRtauXctFF13Ezp07B8xI9u7dy4svvsiSJUtwHIf169eze/fuclW+X/3qVyOe5/zzzycQCLBhwwaKxSKbN29m9erVXHvttUPs4vFQU1PDfffdx759+/jFL37BTTfdxLnnnksymeSBBx5gwYIFdHd3097ezpo1a6ipqWHnzp3813/9V/lRW1tLJpNh7dq15eMahsHkyZPLdZ8sy+LTn/406XSaffv24bour776Kj09PSxcuJBAIEChUGDXrl1YlsXevXuHnGNgbebuu+8unyMYDBKLxUZdK3n99dfZtGkTyWSSdevWlY/1i1/8gqqqKjo6Oti8eTOLFi3izDPPZMOGDVx22WXcfPPN/O///i91dXXccMMNLFmyhKVLl7Jw4UJeeOEF3vnOd3LLLbfwyCOP0NTUxKc+9SnOPPPMcf/mR+1UFwoFnnjiCbLZLH19fVxzzTVDXhv4MTOZDLFYjClTphCLxbBtm82bN/PKK6/wgQ98oPwj3nrrrTzxxBN85zvfYdasWUQikSGLTq+88grpdJply5ZRVVXFqlWrWLVqFY7jsGHDBm677TaeeOIJvvzlL/OTn/xkxDFv2bKF/v5+3vGOdxCLxVi5ciUrV67EdV1efvllvvrVr/LYY4/xjW98g5/+9Kf09fWxbt06NE3jkUce4bHHHisfKxaL0dnZyQ9/+EP++I//eESHbeXKlaxdu5Ynn3yS9vZ2nnzySb773e8OW4wbi+effx5N0zjrrLNoaGjguuuu47rrrsO2bdauXcvNN9/Mxo0b+ad/+ieuuuoqstksu3bt4sc//vEwh//MM89k5syZ5f8+fNORUora2lpmzJjB7t272bZtGz//+c/ZuXMnP/3pTzFNs1zsYPfu3Xzve98bNt5FixYNu4mNViNKRMjn8xQKBTZs2MC+ffuGjWnhwoU0NjYyefJkbrzxRizLYuvWrTzwwAPceeedRCIRPvGJT/DpT3+aqVOnctNNNxEOh3nttde47777uOOOO4jH4/zFX/wFN9xww4gLqiNx1IJ47rnn2LNnD9OmTeOmm24a8kX27t3L/fffzy9/+Uuuu+46FixYgKZpLFiwgPb2dp555hl0Xae2trZ8d3rnO9+JYRjcd999zJo1i8WLF7N8+fLycb/61a+yfv16HnjgAc4+++xDAzcM/v/2zjyqqTP9418SAoSEHQwBZAurLCICtVgVkGrrAtWKolN01AGtVh2XjttoHXW0VtQ5U49OS1WmdfSIa2WsO7bFVgVEUEQLssm+GJYkkJDl+f1hc39EQKFVpjMnn3M4R3Pvfd/nvjdP7vs+77OEhoYiKSkJ2dnZuHr1aq8yb926Fd9//z3S09MRHBzMfM5msxEcHIz58+cjJycHGRkZAIC6ujocOnQIAQEBmDZtGkxNTXXaW7FiBcRiMYqLi+Hj49Otv48//hh+fn5ITk5m3mT29vb9yso9b948qFQqXLhwQUeROBwOIiMjkZiYiCVLluDatWuYMmUKuFwuwsLCsGLFClhZWTHnSyQSlJaWvlAZ7e3tkZSUhG3btuHs2bMoKysDn8/H0KFDnxav/1n2wMBApGKfXwAAGW9JREFU7NixQ8c7oKGhATU1NT2ORW9o81NNnDgRCQkJzBgTEZqamtDQ0ICAgADU1NSAx+Ph008/RW1tLfLz85GXl4dr167hs88+g52dHeLi4mBhYYH9+/ejuroa+fn5uHPnDjIyMrB//34IhUIsXLiwT3L1e8qUnp6OyspKLFq0CEuXLtX5W7t2LUaNGoXCwkKUlZVBrVaDxWJh/vz5qKysxNmzZxEQEAA/Pz+dajze3t5ob2/H/fv34ezsDA8PD6Y/f39/NDQ0YMeOHaisrNSRRaVSobi4GJ2dnYxpsSe0U4u//OUvPbZRUlICuVyOkJAQqNVq3Lt3D2KxGCEhIVi1alW3+4yIiEBVVRUOHz7cY24mkUgES0tLZGVl4ciRI4iMjER4eHi/xjkkJARlZWXYuXMnGhsbdY51dnbi4cOHICKEhITAxsYG4eHhKCsrg1KpxPDhwzF8+HAEBwcjIyMDp0+fRmdn53P7MzU1RVBQEDQaDb755hsUFhZixowZjHJxuVz4+flBLBZDJpMxfQQGBuLy5cs4fPgwzMzM+nRvBgYGcHV1xZAhQ/DgwQNYWloy7fn6+uLChQu4cuUKlEolMjIysHr1amRnZ8PDwwMzZszAli1b8MEHH0AqlaKpqQkXL17E6tWrcefOHXh5eSE+Ph5btmzBggULIJVKmeRvfaFfb4jKykoUFhZCqVRi/Pjx3V5ztra2cHNzg4mJCY4dO4YxY8aAz+fj9ddfBwC0trYiMDAQ3t7eOtclJSVh0aJFYLPZsLS01PEFmjdvHo4ePYr09HSwWCxERkbCxsYGHR0duHfvHo4fPw6VSoU//elPvco9Z84cpKWl4dy5c+BwOIiKioKtrS3kcjkKCgpw4sQJtLe3Y8WKFejo6MCuXbvg4OCAkSNH9jgHXr9+PcaOHYu7d+/2mACZxWJh0aJF2Lx5M1pbWzF58mRmb+ZZ+Hw+HBwc0NraCplMxuylrF27FufOncPhw4fR3t6O8PBwWFpaoq2tDbm5uThy5AiMjY2xePFiODo6Ii4uDitWrMDu3btRW1sLGxsb5ObmYvfu3XBxcUFgYGCv4wM8/ZJ6eHjgzTffxLlz58Bms7Fz505mX4TP52P58uV4//338cknn6CmpgaWlpa4desWUlJSIBQKdaZlL8Lf3x/R0dHYv38/tm/fjpiYGJiYmODbb7/FgQMHEB0dDZFIhJaWFtTU1GDz5s2ora2Fl5cX6uvrcfr0aVhbW8PV1RUCgQCPHz/Gpk2bkJiYCJFIhJqaGqSnp8PW1hbOzs59lqtfVqYvvviC7O3tadKkSb36/ly9epX8/f3JzMyMKioqGCuIg4MDY+rT2s61VFdXk5GREbm4uNDRo0e7tZmZmUkxMTGMhcfV1ZUcHR3JxMSEwsLC6Msvv+zW5rP88MMP9M477xCHw6FBgwaRq6srOTk5EZfLpZCQEDp48CApFApqamoiNptNkZGRvd5jbW0tmZiYkI+PD33zzTeMlen48eOMVaWgoIBYLBZ5enrSqVOnmGuftTLV1tZSYmIihYeH67htEBH9+9//poiICDIyMiKhUEiurq7k4OBARkZGFBkZSWfPntWR6aOPPiJnZ2dycHAgkUhEZmZmFBYWRleuXCEiYqxMRkZGdP78+W73pVAoaPfu3QSAxowZQ4WFhTrHm5qaaOPGjeTs7EyOjo5MH+Hh4XT9+nUi+n+zq7W1NX311Vc61w8bNoxcXV2ptraWNBoN/fTTT7RgwQISCATk4uJC7u7uZGZmRpMnT6bs7GwiemrR3LJlC9na2pKzszMFBASQh4cHCQQCWrt2LdXX11Nraytt2LCBrK2tycXFhQIDA0kkEpFQKKSNGzf2+hx7ol8hpE+ePEFTUxMsLCwwaNCgHufECoUCtbW16OjogEgkgpGREZRKJSoqKqBSqWBrawtbW1uda7RWJiMjIwgEgm47zkSEuro6PHr0CCUlJWhsbISFhQW8vLzg5uYGoVD4wkzZRIT6+nqmjYaGBpibmzNtODg4MImJi4qKwOfz4eTk1GPWC+00i81mw87ODgqFAmKxGI6OjuDz+Ux5rZKSEibTn3aOXFZWBrlcDl9fX+beP//8c/zxj3/E559/jtmzZzP9qNVqVFdXo7i4GKWlpWhpaYGNjQ18fX3h7OwMoVCokyNWIpGgpKQEBQUFkMlkcHJywtChQ+Hg4AA2mw0iYp6hk5MT+Hx+t3trbm5GXV0dzM3NMWjQIJ2FMRFBKpXi0aNHTB+urq6MPNpd+JaWFjQ2NkIgEDBvGO29q9VquLq6wtDQEETErMUKCgqgVqshEong7++v8/1qaWnBo0ePcPv2bbS1tcHOzg5eXl4YMmQILC0tGbmLi4uRm5sLiUQCgUAALy8v+Pr66sjwIv6rYqrp5/rQRPSL66m9jDZeNvfv38eqVaswZMgQrFu3Tsd9BOifzNpzgf+vOfeyedl9dG2vt3vryxi8jGf7XxUgZGBgwJTE7VqbeaDbeNn4+fnh7bffxqFDh5CTk9NjxdO+yqw9l81mv7Jacy+7j67tPa/A5YvG4GU82/+uCJP/YebNm4fKykrU1tZCoVA8N2BJz6vjv2rK9L+O/Ofi8PqyWP859AqhR08X/qvWEHr0vGr0CqFHTxfYmzZt2jTQnVZUVODs2bO4du0afH19B2QBmZKSghs3biA0NBTV1dX48ssvoVQqe91reJncvXsXJ0+eZMprDcT6QKlU4sCBA8jMzERxcTGGDh3a43nV1dU4ePAgsrOz0draCpFI9Kv6JSIUFhYiNTUVXC4XQqGwz9c+evQI//rXv8DhcGBoaIjDhw+joaEBHh4eA7em6vMW3ktk69atJBAIyMzMjA4fPjwgfWqzdajVasrMzCQ7OzvauHEjdXZ2vvS+1q9fTzt27GACjz777DMSCASUmpo6YJkyJBIJs/MbFBTU63kJCQlkZmZGVlZWNH/+/F/dr0ajoWPHjpGlpSWlpKT069pTp06RjY0N7dq1i+RyOSUnJ9PIkSP7FeDzaxnwKZN217qhoQESiQTLli3rc5nbX4NMJmMKJdra2iI2NhZ+fn6vxFb/ySefYN++fcxmk4eHB2JjY+Hm5vbK9gaehX7eVZZIJKipqdFxYdeiUqmQnp4OiUQCiUTS58L0L0KlUjG5r/p7nUQiQWdnJ4yNjREaGgq5XI7r16+/NNlexIDvQ1y6dAnXr1/H+PHjkZ+fj7q6Ojx+/FjHMUypVEImk8HExAQqlQpSqRRqtRrGxsbg8XiM85/2mJGREeO6oD2Pz+f3OhUTiUTYsWMHTExMdOIZ2tvbIZVK0dnZyRRPfzbIRSqVQiaTQaVSMXWozczMGNcRsVgM4KlLRlNTE0xNTREeHo6goCDweDydtjo6OiCRSKBUKnX608qk0WggFovB4XBgZGQEiUQClUoFDofDlPh9ESwWC01NTdi7dy/GjRuncywvLw8qlQpCobCbR612PDs6OqBUKmFoaAhTU9NupX81Gg3a2toglz+tYaF1f+mJ9vZ2RlHYbDZ4PB5MTU17/ZEICwtDVFQUduzYgREjRvTbY/iXMKAKoc3IUFpairVr18LKygrHjx9HcnIy9u7dywx0Xl4evvjiCwwfPhzl5eVIT09HY2MjvL29MW3aNEyfPh0CgQBFRUXYs2cP/P39IRaLcfLkSbS0tMDDwwPTp0/H9OnTu/lNAcDDhw+xYcMGxMbGIiEhAYaGhow798mTJ1FWVgZTU1OMGDECixcvRnh4ODgcDh49eoQDBw7g3LlzaG1thZGRETw9PZGQkICJEyfC1NQUCxcuhFqtRmNjI2bOnIno6GgEBgbi0KFDWLBgAaKiomBoaIjKykocO3YMaWlpqKysBJfLxciRIzFnzhyMGjUKxsbGkEgkiIuLg4eHB9zd3XHy5EkmMnHevHmYPXv2CzNKcDgc8Pl8iMVitLS0ML4/RIRt27ZBLpdj586dWLJkic5zKioqwt69e/Hdd9+hvr4ednZ2GD16NJYsWQJfX1+wWCxoNBpkZWVh3759yMrKgoGBAYYOHQpra+tucpSVleHw4cO4fPkyKisrYWFhgbfffhuzZs2Cj49Pj8FEJiYm8PT0BIvFwoMHDzB8+PA+Z2n8xQzY5IyISkpKaNq0aeTs7Ezff/89ZWdnk7m5OZmZmekEzqenp5OPjw+5uLhQQEAAzZ07lxYuXEihoaFkbW1N27ZtI7lcTpmZmeTp6Umurq7k6elJc+bMoaSkJBo2bBjZ2trS3r17qaOjg4iIhEIhcblcUqlU9O233xKXy6XVq1dTZ2cnKRQK+sMf/sDEaC9dupTi4uLI0dGRoqKimJjtmJgYMjAwoJiYGFq1ahUtWLCA/Pz8yNHRkS5evEhKpZKWLFlCLBaLeDwevffee7Rv3z769NNPicfjUUpKCikUClKr1TRz5kzicrn05ptv0sKFC+l3v/sdDR48mNzc3OjmzZuk0WiY4H8Wi0Xu7u40Y8YMio+PJ4FAQCwWi27fvt3rWLe1tdGgQYOIz+fTunXryMHBgVJTU5njra2tNGTIELK1taVLly6RoaEhk3Xj3r17NG7cOBIIBBQbG0sffvghxcbGkrW1NY0ePZqJUc7NzaWAgAAyNzenmJgYmj17NoWHhxOHwyEOh0P79u0joqcJ7WJjY4nD4TAZEKOjo8nOzo4mTZpERUVFRPQ0y4mRkRFt376dkbOwsJAiIiIoMjKSamtrX8bX8LkMqEKcPn2abG1t6YMPPqD6+nrSaDTk4eFBXC5Xx0VaqxBGRkaMa7dKpaJLly6Ru7s7RURE0J07dxiFAEBpaWmkVqtJoVDQmTNnyMfHh9544w3Kz88noucrxJkzZ0goFFJgYCCTLaOpqYmWL19OLBaLUlNTSaPRUEREBAUEBDDuxHK5nP76178Si8Wio0ePMotoDodDLi4ujEv63r17dRTiypUrxGKxKDQ0lEnlKZVKac+ePSQQCGjKlCkkl8sZhXBzc6PU1FSSSqUkl8tp6dKlxOVyKSkpqdex1iqEubk55efnE4vFonnz5jEypqWlkb29Pa1atYouXLjAKIRKpaJt27YRj8ej1atXM+mDmpubaeXKlcTlcmnjxo2kUqlo2bJlZGpqSmvWrCGxWEwqlYpu3bpF0dHRjEJoNBratWsXmZqa0ty5c6m6upo0Gg2VlZXRnDlziMvlUlpaGimVyh4VQiKRUFxcHFlYWOhkMnlVDNiiWiKRoKCgAC0tLXBxcQGHw4FEIsGECROgUCiQkpLSrUh5aGgoxo4dyzh+BQcHY8KECcjLy8Pt27eZ89zd3TF16lRmTj969GiMHz8eN2/eRHl5+QtlS0tLQ2NjI9atW8esZWxsbDB37lwkJycjJCQEAPDnP/8Zu3btgkwmQ3Z2Ni5dusRErvWH7du3g8Ph4MMPP2SiA3k8HmbPng0vLy+cOXNGZyx8fHwwffp08Hg8GBsbY+rUqTAzM8OdO3f61J+NjQ38/PxQWVmJsrIyaDQanDlzBs3Nzd1CK9va2lBZWQlTU1PExMQwUyxLS0vEx8dDqVSivr6eSTJHREhKSoKVlRXYbDaCgoLw7rvvMu2pVCocO3YMCoUCs2bNQmtrKx4+fIj29nZ4e3uDx+MhKysLUqm0R9m1JliFQtHvcf4lDNgaoqysDMePH2eywV2+fBnA0+zhGo0GxcXFqK6uhouLC3PNqFGjdHz2LS0t8dprr2Hfvn0Qi8XMAI0aNUpnLm1paQlHR0doNBoolcoXDqR20T5q1Cidz/39/eHr68t4ThoYGCAlJQV1dXWQyWSQSCRoamrq94O6f/8+DA0NMXnyZJ3PraysYGxs3K09DoejE0WozZguk/WtBK+NjQ0SExOxadMmnD9/HtOmTUN1dTWEQiEGDRrEZBsBnmboLi8vh4+Pj05sNvA0jNTGxgZPnjxhftzMzc115vUcDkcn2YBSqURnZyc0Gg02bNig015LSwtkMhmTcaUntC7cfXmOL4MBUQj6OcDn4cOHGDx4MAYNGsTE+FpZWWHw4MGor6/HgQMHsHnzZua6Z98YwFMXX63Pu5Zn44W1X17tv/siH4BuC1QDAwPGKpSTk4OVK1fi7t27mDVrFoKDg+Hu7o7MzEz87W9/68swMGitML1ZiV4kc383qYyNjeHr64vm5mZUV1cjLS0NDx48wKZNm7pZ4tRqNVQqVY/u0yqVCm1tbTA1NYWJiQk0Gk23Z/Es2mOGhoaIi4vr8RyRSKSjRD0xUObqAVEIsViMgwcPgsvlYvHixVi4cKHOYOfm5iIyMhJZWVmM+Q4Arl+/DqlUygyWWCxGZmYmXF1ddXYvL1y4wASFaM+rrKwEm80Gh8N54RdI+/CLioogEAiYz9PS0vDRRx9h69atOHHiBO7fv48tW7Zg2bJl4HA4YLPZqKio6Pcvl52dHUpLS5GZmYkxY8Ywn5eXl6Otra1fbfUFAwMDuLi4ICoqCrdu3YJcLkdzczNjPeuKUCiEi4sLzpw5w5iQgadf7I6ODsjlclhYWMDX1xdWVlaQyWQ6969Wq6FQKJj/a8dfo9EgMTFR521SUFCAa9euwcrKqteUNVqFMzTse83uX8OAqF1LSwvOnz+P119/HfHx8TA3N4eZmRnzFxwcDHNzc9TV1SE/P5+57ubNm0xWDYVCgXv37uGf//wnwsLCMGLECOa85uZmFBQUMOdduHABBw8exIQJE5hQzecRHx8POzs7vPfee5DJZOjs7ERFRQUuXryI8vJyKJVKdHR0QKPRMGGxBgYGKCgowPnz56HRaKBSqZiNOODpg9TuGzzLxx9/DIVCgcWLFzP9yeVy/P3vf8fdu3eRnJz80s2Lbm5uiIuLQ0ZGBn788Uf4+Pj0mCXDysoK9vb2aG5uRlZWFtra2qBUKtHS0oLU1FTw+XwmJJbH40Eul+PIkSNQKBTo7OxEYWEh/vGPfzDtcTgchIaGgs1mIykpifnhkkql+Oqrr7B27Vq0tbX1qhBKpRIqlQomJiYDohCv/A2h0Wjw448/QiaTwcHBoUffFg6Hg+joaJw9exZHjx5FVFQUAMDc3BxTp07F1KlToVAo8PXXX0MgEDAZ90pLSwE8TR6mVTapVIpr166Bx+NhypQpcHd31+mrp0GdMWMGTpw4gfPnz2PkyJEICwtDUVERcnJy8P777yMqKgp8Ph/5+fmIj4/H0qVLoVarcePGDdTU1IDP5yM1NRWBgYHw9/eHk5MTqqqqMH78eCQkJHSbvk2ePBmBgYEoLS1FeHg4wsPDUVVVhezsbAiFQkyZMuW51YH6Mx3UYmhoCCsrK5iamqKjowPLly+Hk5NTt3bZbDYmTpyIGzduYM2aNfjuu+/g7u6OBw8e4OrVq3jnnXeQlJQEQ0NDrFq1CuXl5Vi/fj2ysrJgY2OD/Px8FBYW6rSZnJyM27dv4/Tp02hra4Onpyfy8vKQk5ODCRMmwNPTs9d70Xo1hIWF9Zrd/WXyyp37NBoNDhw4gMGDB2PatGnw8/PrLgSbDZFIhNLSUgQFBcHS0hIZGRl466234ObmhgcPHqC2thbe3t5YtGgRfv/738PQ0BCPHz/G119/jVGjRmHo0KEoKChAY2MjvLy8sGLFCrz77rvML21OTg6cnJwwa9YstLW1oaysDCNHjkRQUBBYLBYmTZoEiUQCsViMqqoqcDgcxMTEICkpCS4uLvDy8gKbzYZEIkFxcTGampoQHByMFStWQCgUoqSkBG+88QacnZ0xYsQIlJSUgMViYfDgwfD29kZLSwvGjh0LkUgEFouFmTNnorm5GU+ePEFZWRna29sxbNgw7NmzBz4+PmCxWFCpVMjNzUVISAgiIyOZ8dLmZfL09NRJX//suOfl5cHZ2Rnx8fEAnm50sVgsmJubY8aMGUx6lra2NlRUVOC1117DyJEj4ejoCA8PD8hkMlRUVOCnn36CUqlEREQEVq5cyVjG7O3tIRKJ0NTUhMePH6Ompgaurq6YNGkSuFwuoqOj4eXlBWNjY4wbNw719fWorq7Go0ePwGaz8dZbb2HNmjXMW7y5uRm1tbWIjIyEn58fiAinT5/GqVOnsHLlSoSEhLz6Ulyv3LD7C9DuQ6xfv55aW1upuLiY8vLyuhUi0e5DJCYmEtHTslT5+fk9Fj7pK83NzVRcXExNTU09ViWqqamh3NxcKi8vZ45LpVKqrq7WSYDc0dFBYrH4uc58KpWKqqqqKDc3lx4+fPjcoi//CTo6OqikpIRu3bpFRUVFvVZpam9vp4KCArp37163zORdUavVVFFRQbdv36bHjx+/0LHyyZMnzEZrfxIW/xp+8zHV2gRafcHT0/NX92dpacnY3ntCKBR2m/bxeLxur3MTE5MXurWz2Ww4OjrC0dHxlwv8CjExMYG7u3u3aeezaLP6vQgWiwVnZ+c+JQ4jImRlZSEnJwcJCQkvlOFloQ8Q0vObpLW1lbEoTpo0aUDWD8BvNKa6qqoKOTk5cHV1hZ+fX68WiIaGBvzwww+wt7dn0mXq+d9ALpfj4cOHMDIygre394CV8f1NKoRGo2ESJT9vIIiIccP+zdY91vOL0Wg0OpusA8FvUiH06PlPoV9D6NHTBb1C6NHTBb1C6NHTBb1C6NHTBb1C6NHTBb1C6NHTBb1C6NHTBb1C6NHTBb1C6NHTBb1C6NHTBb1C6NHTBb1C6NHTBb1C6NHThf8DEfeDapaXDYYAAAAASUVORK5CYII=;" vertex="1" parent="1">
          <mxGeometry x="984.1299999999999" y="147.5" width="107.8" height="110" as="geometry" />
        </mxCell>
        <mxCell id="wxUmsyt3SwMRj_RHBpdB-46" style="edgeStyle=orthogonalEdgeStyle;rounded=0;orthogonalLoop=1;jettySize=auto;html=1;" edge="1" parent="1" source="wxUmsyt3SwMRj_RHBpdB-13" target="wxUmsyt3SwMRj_RHBpdB-40">
          <mxGeometry relative="1" as="geometry">
            <Array as="points">
              <mxPoint x="1210" y="319" />
            </Array>
          </mxGeometry>
        </mxCell>
        <mxCell id="wxUmsyt3SwMRj_RHBpdB-13" value="" style="shape=image;verticalLabelPosition=bottom;labelBackgroundColor=#ffffff;verticalAlign=top;aspect=fixed;imageAspect=0;image=https://www.developerro.com/assets/uploads/2019/07/hashicorp-terraform.png;" vertex="1" parent="1">
          <mxGeometry x="992.9000000000001" y="273.75" width="90.25" height="90" as="geometry" />
        </mxCell>
        <mxCell id="wxUmsyt3SwMRj_RHBpdB-18" value="Cloud 9" style="sketch=0;points=[[0,0,0],[0.25,0,0],[0.5,0,0],[0.75,0,0],[1,0,0],[0,1,0],[0.25,1,0],[0.5,1,0],[0.75,1,0],[1,1,0],[0,0.25,0],[0,0.5,0],[0,0.75,0],[1,0.25,0],[1,0.5,0],[1,0.75,0]];outlineConnect=0;fontColor=#232F3E;gradientColor=#4D72F3;gradientDirection=north;fillColor=#3334B9;strokeColor=#ffffff;dashed=0;verticalLabelPosition=bottom;verticalAlign=top;align=center;html=1;fontSize=12;fontStyle=0;aspect=fixed;shape=mxgraph.aws4.resourceIcon;resIcon=mxgraph.aws4.cloud9;" vertex="1" parent="1">
          <mxGeometry x="730" y="157.5" width="138" height="138" as="geometry" />
        </mxCell>
        <mxCell id="wxUmsyt3SwMRj_RHBpdB-22" style="edgeStyle=orthogonalEdgeStyle;rounded=0;orthogonalLoop=1;jettySize=auto;html=1;" edge="1" parent="1" source="wxUmsyt3SwMRj_RHBpdB-21" target="wxUmsyt3SwMRj_RHBpdB-18">
          <mxGeometry relative="1" as="geometry" />
        </mxCell>
        <mxCell id="wxUmsyt3SwMRj_RHBpdB-21" value="BASTION&amp;nbsp;" style="outlineConnect=0;dashed=0;verticalLabelPosition=bottom;verticalAlign=top;align=center;html=1;shape=mxgraph.aws3.ec2;fillColor=#F58534;gradientColor=none;" vertex="1" parent="1">
          <mxGeometry x="610" y="75" width="76.5" height="93" as="geometry" />
        </mxCell>
        <mxCell id="wxUmsyt3SwMRj_RHBpdB-26" value="" style="shape=image;verticalLabelPosition=bottom;labelBackgroundColor=#ffffff;verticalAlign=top;aspect=fixed;imageAspect=0;image=https://www.imagar.com/wp-content/uploads/2018/06/azure.png;" vertex="1" parent="1">
          <mxGeometry x="1430" y="10" width="140" height="87.77" as="geometry" />
        </mxCell>
        <mxCell id="wxUmsyt3SwMRj_RHBpdB-27" value="" style="shape=image;verticalLabelPosition=bottom;labelBackgroundColor=#ffffff;verticalAlign=top;aspect=fixed;imageAspect=0;image=https://upload.wikimedia.org/wikipedia/commons/thumb/9/93/Amazon_Web_Services_Logo.svg/800px-Amazon_Web_Services_Logo.svg.png;" vertex="1" parent="1">
          <mxGeometry x="1430" y="138.79" width="150" height="89.71" as="geometry" />
        </mxCell>
        <mxCell id="wxUmsyt3SwMRj_RHBpdB-28" value="" style="shape=image;verticalLabelPosition=bottom;labelBackgroundColor=#ffffff;verticalAlign=top;aspect=fixed;imageAspect=0;image=https://maplink.global/blog/wp-content/uploads/2021/12/google-cloud.jpg;" vertex="1" parent="1">
          <mxGeometry x="1410" y="261" width="210" height="115.5" as="geometry" />
        </mxCell>
        <mxCell id="wxUmsyt3SwMRj_RHBpdB-38" style="edgeStyle=orthogonalEdgeStyle;rounded=0;orthogonalLoop=1;jettySize=auto;html=1;entryX=0;entryY=0.5;entryDx=0;entryDy=0;entryPerimeter=0;" edge="1" parent="1" source="wxUmsyt3SwMRj_RHBpdB-35" target="wxUmsyt3SwMRj_RHBpdB-21">
          <mxGeometry relative="1" as="geometry" />
        </mxCell>
        <mxCell id="wxUmsyt3SwMRj_RHBpdB-35" value="TASK" style="shape=image;html=1;verticalAlign=top;verticalLabelPosition=bottom;labelBackgroundColor=#ffffff;imageAspect=0;aspect=fixed;image=https://cdn1.iconfinder.com/data/icons/CrystalClear/64x64/apps/package_system.png" vertex="1" parent="1">
          <mxGeometry x="440" y="130" width="64" height="64" as="geometry" />
        </mxCell>
        <mxCell id="wxUmsyt3SwMRj_RHBpdB-41" style="edgeStyle=orthogonalEdgeStyle;rounded=0;orthogonalLoop=1;jettySize=auto;html=1;" edge="1" parent="1" source="wxUmsyt3SwMRj_RHBpdB-40" target="wxUmsyt3SwMRj_RHBpdB-26">
          <mxGeometry relative="1" as="geometry">
            <Array as="points">
              <mxPoint x="1240" y="90" />
            </Array>
          </mxGeometry>
        </mxCell>
        <mxCell id="wxUmsyt3SwMRj_RHBpdB-42" style="edgeStyle=orthogonalEdgeStyle;rounded=0;orthogonalLoop=1;jettySize=auto;html=1;entryX=0;entryY=0.75;entryDx=0;entryDy=0;" edge="1" parent="1" source="wxUmsyt3SwMRj_RHBpdB-40" target="wxUmsyt3SwMRj_RHBpdB-27">
          <mxGeometry relative="1" as="geometry" />
        </mxCell>
        <mxCell id="wxUmsyt3SwMRj_RHBpdB-43" style="edgeStyle=orthogonalEdgeStyle;rounded=0;orthogonalLoop=1;jettySize=auto;html=1;" edge="1" parent="1" source="wxUmsyt3SwMRj_RHBpdB-40" target="wxUmsyt3SwMRj_RHBpdB-28">
          <mxGeometry relative="1" as="geometry">
            <Array as="points">
              <mxPoint x="1240" y="330" />
            </Array>
          </mxGeometry>
        </mxCell>
        <mxCell id="wxUmsyt3SwMRj_RHBpdB-40" value="BUILD" style="shape=image;html=1;verticalAlign=top;verticalLabelPosition=bottom;labelBackgroundColor=#ffffff;imageAspect=0;aspect=fixed;image=https://cdn1.iconfinder.com/data/icons/CrystalClear/64x64/apps/package_system.png" vertex="1" parent="1">
          <mxGeometry x="1208" y="164.5" width="64" height="64" as="geometry" />
        </mxCell>
        <mxCell id="wxUmsyt3SwMRj_RHBpdB-49" style="edgeStyle=orthogonalEdgeStyle;rounded=0;orthogonalLoop=1;jettySize=auto;html=1;" edge="1" parent="1" source="wxUmsyt3SwMRj_RHBpdB-47" target="wxUmsyt3SwMRj_RHBpdB-21">
          <mxGeometry relative="1" as="geometry" />
        </mxCell>
        <mxCell id="wxUmsyt3SwMRj_RHBpdB-50" style="edgeStyle=orthogonalEdgeStyle;rounded=0;orthogonalLoop=1;jettySize=auto;html=1;entryX=0.25;entryY=1;entryDx=0;entryDy=0;" edge="1" parent="1" source="wxUmsyt3SwMRj_RHBpdB-47" target="wxUmsyt3SwMRj_RHBpdB-40">
          <mxGeometry relative="1" as="geometry" />
        </mxCell>
        <mxCell id="wxUmsyt3SwMRj_RHBpdB-47" value="TEMPLATES, PIPELINES&#xa;(YML, JSON ........)" style="rounded=1;arcSize=10;dashed=1;fillColor=none;gradientColor=none;dashPattern=1 1;strokeWidth=2;" vertex="1" parent="1">
          <mxGeometry x="790" y="430" width="140" height="90" as="geometry" />
        </mxCell>
        <mxCell id="wxUmsyt3SwMRj_RHBpdB-48" value="" style="sketch=0;points=[[0,0,0],[0.25,0,0],[0.5,0,0],[0.75,0,0],[1,0,0],[0,1,0],[0.25,1,0],[0.5,1,0],[0.75,1,0],[1,1,0],[0,0.25,0],[0,0.5,0],[0,0.75,0],[1,0.25,0],[1,0.5,0],[1,0.75,0]];outlineConnect=0;fontColor=#232F3E;gradientColor=#60A337;gradientDirection=north;fillColor=#277116;strokeColor=#ffffff;dashed=0;verticalLabelPosition=bottom;verticalAlign=top;align=center;html=1;fontSize=12;fontStyle=0;aspect=fixed;shape=mxgraph.aws4.resourceIcon;resIcon=mxgraph.aws4.s3;" vertex="1" parent="1">
          <mxGeometry x="797" y="430" width="30" height="30" as="geometry" />
        </mxCell>
        <mxCell id="wxUmsyt3SwMRj_RHBpdB-51" value="" style="sketch=0;points=[[0,0,0],[0.25,0,0],[0.5,0,0],[0.75,0,0],[1,0,0],[0,1,0],[0.25,1,0],[0.5,1,0],[0.75,1,0],[1,1,0],[0,0.25,0],[0,0.5,0],[0,0.75,0],[1,0.25,0],[1,0.5,0],[1,0.75,0]];outlineConnect=0;fontColor=#232F3E;gradientColor=#60A337;gradientDirection=north;fillColor=#277116;strokeColor=#ffffff;dashed=0;verticalLabelPosition=bottom;verticalAlign=top;align=center;html=1;fontSize=12;fontStyle=0;aspect=fixed;shape=mxgraph.aws4.resourceIcon;resIcon=mxgraph.aws4.s3;" vertex="1" parent="1">
          <mxGeometry x="410" y="430" width="30" height="30" as="geometry" />
        </mxCell>
      </root>
    </mxGraphModel>
  </diagram>
</mxfile>
